<?xml version="1.0" encoding="UTF-8" standalone="no"?>
<!-- Generator: Adobe Illustrator 19.2.1, SVG Export Plug-In . SVG Version: 6.00 Build 0)  -->

<svg
   version="1.1"
   id="Layer_1"
   x="0px"
   y="0px"
   viewBox="0 0 735.10636 500"
   xml:space="preserve"
   width="735.10638"
   height="500"
   xmlns="http://www.w3.org/2000/svg"
   xmlns:svg="http://www.w3.org/2000/svg"><defs
   id="defs9" />
<style
   type="text/css"
   id="style2">
	.st0{fill:#003063;}
</style>
<path
   class="st0"
   d="m 250,500 c 42.97872,0 83.40426,-10.85106 118.51064,-29.78723 34.89362,18.51063 74.68085,29.14893 117.02127,29.14893 138.08511,0 249.57447,-111.70213 249.57447,-249.57447 0,-137.87234 -111.70212,-249.574464 -249.57447,-249.574464 -42.55319,0 -82.55319,10.638298 -117.65957,29.361702 C 332.76596,10.638298 292.55319,0 250,0 111.91489,0 0,111.91489 0,250 0,388.29787 112.12766,500 250,500 Z m 162.12766,-473.404255 7.02128,18.297872 27.23404,-7.234043 -2.97872,-18.93617 c 9.57446,-1.702127 19.14893,-2.765957 28.93617,-3.404255 l 1.91489,19.148936 28.29787,-0.212766 1.9149,-18.723404 c 9.78723,0.851064 19.3617,2.127659 28.93617,4.255319 l -2.97873,18.93617 27.44681,7.234043 6.59575,-17.446809 c 9.14893,3.404256 18.0851,7.021277 26.59574,11.489362 l -7.65957,17.446809 24.46808,13.829787 10.6383,-14.893617 c 8.0851,5.531915 15.53191,11.702127 22.97872,17.87234 l -11.70213,14.468081 20,19.78724 14.04256,-11.70213 c 6.38298,7.44681 12.12766,15.10638 17.44681,23.40426 l -14.89362,10.85106 14.25532,24.25532 16.59574,-7.44681 c 4.04256,8.7234 7.87234,17.65957 10.85107,27.02128 l -17.23405,6.59574 7.44681,27.23404 17.65958,-2.97872 c 1.91489,9.3617 2.97872,18.93617 3.61702,28.72341 l -18.08511,2.12765 0.21277,28.29788 17.87234,1.70212 c -0.6383,9.14894 -1.70213,18.29788 -3.61702,27.23405 l -18.29788,-2.76596 -6.80851,27.44681 17.02128,6.17021 c -3.19149,9.3617 -6.80851,18.29787 -11.06383,26.80851 l -17.02128,-7.23404 -13.61702,24.68085 14.89362,10.42553 c -5.31915,8.08511 -11.2766,15.74468 -17.65957,23.19149 l -14.68086,-11.48936 -19.57446,20.21277 11.70212,14.04255 c -7.23404,6.38298 -14.89361,12.34042 -22.76595,18.08511 l -11.2766,-15.10639 -24.25532,14.46809 7.87234,16.80851 c -8.51064,4.46808 -17.44681,8.29787 -26.59574,11.48936 l -7.23405,-17.44681 -27.02127,8.08511 L 532.97872,480 c -9.3617,2.12766 -18.93617,3.40426 -28.7234,4.25532 l -2.55319,-18.93617 -28.29787,0.6383 -1.48937,18.7234 c -9.78723,-0.42553 -19.3617,-1.70213 -28.93617,-3.19149 l 2.55319,-19.3617 -27.4468,-6.59575 -6.38298,18.08511 c -10,-3.19149 -20,-7.23404 -29.3617,-11.70213 18.51063,-11.70212 35.53191,-25.74468 50.42553,-41.91489 17.44681,5.53191 35.74468,8.51064 54.46808,8.51064 43.40426,0 86.17022,-16.59575 118.51064,-44.68085 h 58.51064 l -15.95745,-55.31915 c 11.70213,-24.04255 17.87234,-50.6383 17.87234,-78.29787 0,-47.65958 -18.51064,-92.5532 -52.34042,-126.17022 -33.61702,-33.61702 -78.51064,-52.340422 -126.17022,-52.340422 -18.51063,0 -36.80851,2.978723 -54.46808,8.510642 C 418.29787,64.042553 401.2766,50 382.76596,38.297872 392.34043,33.829787 402.12766,30 412.12766,26.595745 Z M 368.93617,127.02128 c 19.3617,-9.36171 37.87234,-21.06383 54.68085,-35.10639 17.02128,18.51064 30.85107,40 41.2766,63.19149 l -28.08511,90.85107 H 371.70213 V 209.3617 h -11.2766 c -0.85106,-6.38298 -1.91489,-12.76596 -3.40425,-19.14893 11.70212,-8.51064 19.3617,-22.34043 19.3617,-37.87234 0.21276,-9.36171 -2.55319,-18.08511 -7.44681,-25.31915 z m 129.3617,223.82978 h 61.9149 l 7.65957,32.76596 h 24.89362 c -28.72341,22.12766 -65.74468,36.59575 -104.89362,36.59575 -16.59574,0 -32.76596,-2.34043 -48.51064,-7.02128 7.65958,-8.93617 16.17021,-19.57447 22.55319,-29.57447 H 490 Z m 14.68085,-59.57446 17.02128,-70 16.38298,70 z M 588.7234,115.95745 H 477.02128 l -5.53192,18.0851 c -8.93617,-17.02127 -19.57447,-32.76595 -32.12766,-47.02127 15.74468,-4.68085 31.9149,-6.80851 48.51064,-6.80851 45.53192,0 88.08511,17.65957 120.42553,49.78723 32.12766,32.12766 49.78724,74.89362 49.78724,120.21277 0,23.40425 -4.68085,45.53191 -13.19149,65.74468 z M 371.70213,337.02128 v -82.97873 h 62.55319 l -40.42553,129.57447 h 49.57447 c -5.74469,8.08511 -12.76596,17.23404 -19.57447,24.68085 -16.17022,-13.19149 -33.61702,-24.68085 -51.9149,-33.82978 V 337.02128 Z M 418.08511,85.95745 c -16.80851,13.61702 -34.89362,25.31915 -54.25532,34.46808 -8.51064,-8.93617 -20.6383,-14.68085 -34.04256,-14.68085 h -3.40425 C 308.29787,71.914894 284.04255,41.06383 254.68085,15.106383 318.51064,16.382979 376.38298,43.191489 418.08511,85.95745 Z M 254.46809,26.382979 C 280,50 301.2766,77.44681 317.65957,107.23404 c -17.23404,4.68085 -30.63829,18.93617 -33.82978,36.59575 -9.57447,1.27659 -19.3617,1.91489 -29.14894,2.12766 V 26.382979 Z m 0,127.659571 c 9.57446,-0.21276 18.93617,-0.85106 28.29787,-1.70212 0,25.74468 21.06383,46.80851 46.80851,46.80851 7.23404,0 14.04255,-1.48937 20,-4.46809 1.06383,4.89362 1.91489,9.78724 2.55319,14.68085 h -65.74468 v 36.59575 h -31.91489 z m 0,100 h 31.91489 v 82.97873 11.27659 c -10.6383,-1.48936 -21.2766,-2.34042 -31.91489,-2.34042 z m 0,100.21277 c 10.63829,0 21.48936,1.06383 31.91489,2.55319 v 27.02128 0 h 36.17021 c -16.80851,32.97872 -40.42553,64.46808 -68.0851,90.21276 z m 77.23404,29.3617 h 2.34042 37.65958 c 16.38298,8.51064 31.91489,18.72341 46.38298,30.6383 -41.70213,42.76596 -99.57447,69.3617 -163.61702,70.6383 32.12765,-28.29788 58.7234,-63.82979 77.23404,-101.2766 z m -249.78724,30.6383 c 13.82979,-11.2766 29.57447,-22.55319 45.10639,-30.6383 h 26.59574 v -11.27659 c 2.76596,-1.06383 5.74468,-2.12766 8.72341,-3.19149 18.51063,42.97872 46.59574,82.55319 82.34042,115.95744 -63.82979,-1.48936 -121.27659,-28.29787 -162.76596,-70.85106 z m 71.70213,-50.85106 v -17.44681 c 1.70213,5.10638 3.61702,10.21276 5.53192,15.31915 z m 92.55319,110.42553 C 213.19149,443.40426 187.44681,406.59574 170,366.38298 c 24.46809,-7.87234 50.21277,-11.91489 76.17021,-12.34043 z m 0,-127.87234 c -27.02127,0.42553 -53.82978,4.68085 -79.3617,12.97872 -5.53191,-13.82979 -10,-27.87234 -13.40425,-42.12766 v -27.65957 h 74.04255 v -34.89362 h 18.51064 v 91.70213 z m 0,-100 h -18.51064 v -25.10639 h -74.04255 v -27.65957 -7.23404 h 83.19149 v -32.12766 c 3.19149,0.21276 6.38298,0.21276 9.57447,0.21276 v 91.9149 z m 0,-100 c -3.19149,0 -6.38298,-0.21277 -9.57447,-0.21277 V 113.61702 H 179.57447 C 196.38298,81.2766 218.7234,51.702128 246.17021,26.382979 Z m 0,-130.851067 c -31.70212,27.87234 -57.23404,61.489362 -75.74468,98.297877 H 123.19149 C 108.7234,105.53191 94.89362,96.38298 82.12766,85.74468 123.82979,42.978723 181.91489,16.170213 246.17021,15.106383 Z M 76.38298,91.91489 C 85.95745,100 96.17021,107.23404 106.80851,113.61702 H 59.787234 v 79.57447 52.76596 H 15.106383 C 16.170213,186.59574 39.148936,132.55319 76.38298,91.91489 Z M 59.787234,254.04255 V 383.61702 H 111.48936 C 99.78723,390.42553 87.02128,399.57447 76.38298,408.29787 39.148936,367.44681 16.170213,313.40426 15.319149,254.04255 Z"
   id="path4"
   style="stroke-width:2.12766" />
</svg>
